<svg version="1.1" id="Layer_1" xmlns="http://www.w3.org/2000/svg" xmlns:xlink="http://www.w3.org/1999/xlink" x="0px" y="0px"
	 width="100%" viewBox="0 0 240 240" enable-background="new 0 0 240 240" xml:space="preserve">
<path fill="#000000" opacity="1.000000" stroke="none" 
	d="M17.455467,176.465500 
	C17.194706,153.506790 16.942299,131.014984 16.761024,108.522621 
	C16.598574,88.365913 16.827902,68.215073 17.575235,48.067478 
	C18.108744,33.684341 29.181599,22.629644 43.471798,22.628061 
	C96.464645,22.622189 149.457489,22.634039 202.450333,22.653179 
	C213.794968,22.657276 224.909470,34.473141 225.494232,45.821281 
	C227.433243,83.449646 225.693756,121.102959 226.657394,158.736237 
	C227.040970,173.716522 226.571640,188.722366 226.322205,203.713760 
	C226.173859,212.629349 216.297134,223.819077 207.454559,225.268097 
	C204.181625,225.804443 200.848175,226.221237 197.538757,226.247757 
	C149.219910,226.635071 100.900459,226.946930 52.581146,227.276794 
	C47.405933,227.312134 42.124516,227.400757 37.238815,225.701187 
	C23.723541,220.999664 18.147606,213.738129 17.663151,198.426025 
	C17.436640,191.266800 17.540600,184.097107 17.455467,176.465500 
M139.393951,25.351654 
	C107.406059,25.307764 75.418167,25.262617 43.430271,25.220612 
	C30.969057,25.204248 20.613518,35.499542 20.298481,47.912094 
	C19.605957,75.197754 19.324530,102.478188 19.832245,129.774643 
	C20.268898,153.250534 20.167618,176.736176 20.351677,200.217133 
	C20.441280,211.647888 29.781218,222.754608 40.200203,223.635468 
	C46.828812,224.195877 53.463303,224.641388 60.143120,224.663513 
	C106.953560,224.818619 153.758163,224.406525 200.561432,223.639008 
	C213.383698,223.428741 223.649994,213.249649 223.651459,200.460510 
	C223.656265,158.475464 223.711441,116.490211 223.587296,74.505508 
	C223.558304,64.700607 224.086868,54.894482 222.854874,45.075146 
	C221.556610,34.727390 211.816986,25.409567 201.327164,25.391958 
	C181.003326,25.357838 160.679398,25.363377 139.393951,25.351654 
z"/>
<path fill="#000000" opacity="1.000000" stroke="none" 
	d="M86.997070,194.918243 
	C73.720383,194.716995 60.916153,195.518982 48.329720,194.457001 
	C45.418285,183.716080 55.698303,165.647476 65.296600,160.126007 
	C72.392059,156.044296 79.987976,153.058411 87.213570,149.281525 
	C98.486694,143.388916 100.314011,135.980499 92.358727,125.954224 
	C85.987686,117.924599 80.082832,109.750587 78.175545,99.394608 
	C72.884018,70.663162 92.380646,45.514034 118.678955,43.725079 
	C142.759033,42.087013 173.233261,67.377953 159.988037,102.088058 
	C156.143463,112.163071 150.330124,121.037933 143.962860,129.611496 
	C141.871826,132.427078 139.814240,135.253098 138.575790,138.567688 
	C136.841827,143.208511 138.224960,147.946732 142.723709,149.928085 
	C147.470840,152.018829 146.138840,154.265182 143.809097,157.040390 
	C136.621155,165.602707 128.329453,173.098389 120.561737,181.100403 
	C120.446030,181.219589 120.286598,181.303986 120.194084,181.436966 
	C112.186600,192.947357 101.198425,197.222382 86.997070,194.918243 
M129.171356,47.308174 
	C119.875397,45.109737 110.604553,45.933834 102.560226,50.688168 
	C82.531937,62.525230 73.516441,87.184502 84.297211,109.485435 
	C87.308731,115.715019 91.951019,120.753571 95.812836,126.361008 
	C102.238670,135.691467 100.227043,144.914886 90.334602,150.363358 
	C84.508728,153.572083 78.483742,156.442871 72.434265,159.216980 
	C60.844009,164.531921 54.041039,173.693634 50.780769,185.722885 
	C49.226070,191.459198 50.170204,192.604980 55.938194,192.609177 
	C70.925018,192.620071 85.912659,192.522903 100.898056,192.667374 
	C104.159195,192.698807 106.573341,191.786545 108.832253,189.442184 
	C118.883217,179.011124 129.083130,168.723709 139.159210,158.316589 
	C140.470139,156.962585 142.444550,155.885437 142.282471,153.546478 
	C134.165100,146.708298 133.352692,141.034332 139.299576,131.914963 
	C141.388748,128.711288 143.785492,125.709984 145.957962,122.558487 
	C153.202316,112.049461 159.524933,100.980347 160.522430,88.010139 
	C161.919037,69.850273 148.787231,52.860874 129.171356,47.308174 
z"/>
<path fill="#000000" opacity="1.000000" stroke="none" 
	d="
M164.791992,169.792053 
	C157.608398,176.987991 150.682205,183.941330 143.738678,190.877319 
	C139.079346,195.531570 127.224403,196.587982 120.934280,192.734802 
	C122.441643,189.151642 125.447952,186.724579 128.056534,184.077805 
	C141.946518,169.984421 155.883224,155.935898 169.934433,142.003632 
	C172.690033,139.271362 173.175369,137.246033 170.516815,134.032135 
	C166.580215,129.273148 167.090164,128.306503 173.027176,126.373528 
	C182.008499,123.449356 191.003098,120.583015 200.277771,119.034004 
	C202.502396,122.440277 200.850449,125.547211 200.211258,128.469879 
	C198.616638,135.761276 196.729553,142.998444 194.681061,150.177826 
	C192.934341,156.299576 191.887054,156.486542 187.280411,152.216553 
	C186.677399,151.657593 186.033585,151.142670 184.699829,150.000153 
	C178.131989,156.529282 171.587021,163.035690 164.791992,169.792053 
M198.548584,123.254776 
	C198.373077,122.813232 198.119095,121.970314 198.033203,121.987114 
	C188.978256,123.757462 180.182526,126.376366 171.273743,129.763763 
	C171.867477,131.020264 172.081223,131.840134 172.565948,132.441620 
	C177.461899,138.516830 177.424271,138.063156 171.405273,144.101028 
	C157.073410,158.477829 142.735855,172.849045 128.451431,187.272873 
	C127.128151,188.609085 125.179947,189.602676 125.004608,192.227295 
	C131.857193,192.882507 137.904312,193.505371 143.522873,187.358398 
	C154.739258,175.087112 166.895874,163.675278 178.662720,151.907028 
	C184.245697,146.323395 184.240585,146.326508 190.223648,150.918655 
	C190.427582,151.075180 190.856537,150.938522 191.721146,150.938522 
	C195.056900,142.257294 196.701096,133.011505 198.548584,123.254776 
z"/>
</svg>