<svg version="1.1" id="Layer_1" xmlns="http://www.w3.org/2000/svg" xmlns:xlink="http://www.w3.org/1999/xlink" x="0px" y="0px"
	 width="100%" viewBox="0 0 240 240" enable-background="new 0 0 240 240" xml:space="preserve">
<path d="M70 0H10C4.47715 0 0 4.47715 0 10V70C0 75.5229 4.47715 80 10 80H70C75.5229 80 80 75.5229 80 70V10C80 4.47715 75.5229 0 70 0Z" fill="#401884"/>
<path fill="#007BFF" stroke="none" 
    d="M86.997070,194.918243 
    C73.720383,194.716995 60.916153,195.518982 48.329720,194.457001 
    C45.418285,183.716080 55.698303,165.647476 65.296600,160.126007 
    C72.392059,156.044296 79.987976,153.058411 87.213570,149.281525 
    C98.486694,143.388916 100.314011,135.980499 92.358727,125.954224 
    C85.987686,117.924599 80.082832,109.750587 78.175545,99.394608 
    C72.884018,70.663162 92.380646,45.514034 118.678955,43.725079 
    C142.759033,42.087013 173.233261,67.377953 159.988037,102.088058 
    C156.143463,112.163071 150.330124,121.037933 143.962860,129.611496 
    C141.871826,132.427078 139.814240,135.253098 138.575790,138.567688 
    C136.841827,143.208511 138.224960,147.946732 142.723709,149.928085 
    C147.470840,152.018829 146.138840,154.265182 143.809097,157.040390 
    C136.621155,165.602707 128.329453,173.098389 120.561737,181.100403 
    C120.446030,181.219589 120.286598,181.303986 120.194084,181.436966 
    C112.186600,192.947357 101.198425,197.222382 86.997070,194.918243 
    M129.171356,47.308174 
    C119.875397,45.109737 110.604553,45.933834 102.560226,50.688168 
    C82.531937,62.525230 73.516441,87.184502 84.297211,109.485435 
    C87.308731,115.715019 91.951019,120.753571 95.812836,126.361008 
    C102.238670,135.691467 100.227043,144.914886 90.334602,150.363358 
    C84.508728,153.572083 78.483742,156.442871 72.434265,159.216980 
    C60.844009,164.531921 54.041039,173.693634 50.780769,185.722885 
    C49.226070,191.459198 50.170204,192.604980 55.938194,192.609177 
    C70.925018,192.620071 85.912659,192.522903 100.898056,192.667374 
    C104.159195,192.698807 106.573341,191.786545 108.832253,189.442184 
    C118.883217,179.011124 129.083130,168.723709 139.159210,158.316589 
    C140.470139,156.962585 142.444550,155.885437 142.282471,153.546478 
    C134.165100,146.708298 133.352692,141.034332 139.299576,131.914963 
    C141.388748,128.711288 143.785492,125.709984 145.957962,122.558487 
    C153.202316,112.049461 159.524933,100.980347 160.522430,88.010139 
    C161.919037,69.850273 148.787231,52.860874 129.171356,47.308174 
    z" 
  />
</svg>