<?xml version="1.0" encoding="UTF-8"?>
<svg id="Layer_2" data-name="Layer 2" xmlns="http://www.w3.org/2000/svg" viewBox="0 0 1000 1000">
  <defs>
    <style>
      .cls-1 {
        fill: #401884;
      }
    </style>
  </defs>
  <path class="cls-1" d="M823.42,231.98l-.48-15.09-15.08-.53c-97.8-3.52-223.2-46.65-298.2-102.54l-9.66-7.2-9.66,7.2c-74.98,55.9-200.39,99.03-298.19,102.54l-15.08.53-.48,15.09c-.3,9.3-7.27,228.45-3.51,280.51,6.66,91.74,50.27,175.76,129.6,249.71,62.54,58.31,134.35,98.7,189.91,127.37l7.41,3.83,7.42-3.83c55.56-28.67,127.37-69.06,189.91-127.37,79.33-73.95,122.93-157.97,129.59-249.71,3.78-52.06-3.2-271.21-3.49-280.51ZM794.68,510.15c-12.89,177.8-172.18,282.81-294.68,346.85-122.49-64.04-281.77-169.05-294.67-346.85-3.11-42.79,1.58-211.13,3.11-262.31,98.21-6.96,214.2-47.16,291.56-101.15,77.37,54,193.37,94.19,291.57,101.15,1.53,51.17,6.22,219.51,3.11,262.31Z"/>
  <path class="cls-1" d="M689.56,303.1c-50.64-50.64-117.95-78.51-189.56-78.51s-138.92,27.87-189.55,78.51c-50.63,50.63-78.51,117.95-78.51,189.55s27.89,138.92,78.51,189.56c50.63,50.63,117.95,78.51,189.55,78.51s138.92-27.89,189.56-78.51c50.63-50.64,78.51-117.95,78.51-189.56s-27.89-138.92-78.51-189.55ZM516.16,392.23h46.42v-32.33h-46.42v-102.43c6.81.45,13.55,1.21,20.2,2.25,20.03,18.14,36.79,41.8,49.86,70.38l29.39-13.44c-6.71-14.7-14.32-28.27-22.8-40.7,41.41,17.79,76.75,47.13,101.91,83.95h-11.65v32.33h30.2c13,27.49,20.84,57.87,22.24,89.91h-85.1c-.44-17.64-1.74-35.1-3.9-52.06l-32.06,4.09c1.99,15.62,3.21,31.69,3.64,47.97h-101.92v-89.91ZM463.66,259.71c6.64-1.03,13.37-1.79,20.18-2.24v102.43h-81.66c14.02-41.8,34.9-76.08,61.48-100.2ZM407.2,275.96c-10.79,15.81-20.18,33.51-28.1,52.98-4.04,9.95-7.7,20.28-10.93,30.97h-62.88c25.16-36.81,60.5-66.15,101.91-83.95ZM316.18,640.09h55.57c9.75,27.87,21.83,50.54,34.54,68.88-35.36-15.38-66.25-39.19-90.11-68.88ZM536.42,725.59c-6.66,1.04-13.43,1.8-20.27,2.25v-50.74h-32.33v50.74c-6.84-.45-13.6-1.21-20.27-2.25-19.15-17.11-41.02-44.05-57.34-85.5h42.94v-32.33h-53.62c-4.26-15.71-7.75-33.07-10.17-52.22l-32.06,4.07c2.19,17.32,5.2,33.33,8.86,48.15h-67.86c-15.76-28.07-25.96-59.66-29.06-93.3h47.22v-32.33h-47.99c1.4-32.04,9.24-62.42,22.24-89.91h73.14c-3.69,17.34-6.43,35.5-8.19,54.33l32.18,3c1.88-20.09,4.96-39.26,9.18-57.33h90.8v89.91h-55.69v32.33h55.69v61.8h32.33v-61.8h101.76c-1.24,33.72-5.82,65.01-13.54,93.3h-52.54v32.33h41.89c-13.73,34.86-33,63.82-57.3,85.5ZM593.68,708.98c13.99-20.23,25.52-43.33,34.45-68.89h55.7c-23.87,29.7-54.77,53.51-90.15,68.89ZM705.7,607.77h-67.96c7.12-28.73,11.36-59.99,12.51-93.3h84.49c-3.1,33.63-13.28,65.22-29.04,93.3Z"/>
  <circle class="cls-1" cx="625.12" cy="376.18" r="33"/>
  <circle class="cls-1" cx="371.56" cy="501.58" r="33"/>
  <circle class="cls-1" cx="501.25" cy="629.36" r="25.16"/>
</svg>