<?xml version="1.0" encoding="UTF-8"?>
<svg id="Layer_1" data-name="Layer 1" xmlns="http://www.w3.org/2000/svg" viewBox="0 0 838.84 1000">
  <defs>
    <style>
      .cls-1 {
        fill: none;
        stroke: #401884;
        stroke-miterlimit: 10;
        stroke-width: 24px;
      }

      .cls-2 {
        fill: #401884;
      }
    </style>
  </defs>
  <line class="cls-1" x1="419.42" y1="598.93" x2="419.42" y2="161.97"/>
  <line class="cls-1" x1="419.42" y1="817.97" x2="419.42" y2="730.24"/>
  <path class="cls-1" d="M419.42,13.52c102.79,76.62,269.48,133,400.16,137.7,0,0,9.49,295.63,4.6,363.1-19.13,263.62-278.28,408.64-404.75,473.91-126.47-65.26-385.63-210.29-404.75-473.91-4.9-67.47,4.6-363.1,4.6-363.1,130.68-4.7,297.37-61.08,400.16-137.7Z"/>
  <circle class="cls-1" cx="419.42" cy="490.03" r="328.06"/>
  <line class="cls-1" x1="500.92" y1="338.2" x2="128.54" y2="338.2"/>
  <line class="cls-1" x1="175.22" y1="497.4" x2="91.44" y2="497.4"/>
  <line class="cls-1" x1="747.4" y1="497.4" x2="325.85" y2="497.4"/>
  <line class="cls-1" x1="657.82" y1="338.2" x2="709.86" y2="338.2"/>
  <line class="cls-1" x1="353.22" y1="660.98" x2="139.37" y2="660.98"/>
  <line class="cls-1" x1="486.93" y1="660.98" x2="699.47" y2="660.98"/>
  <path class="cls-1" d="M247.22,431.95c9.45-101.16,43.36-203.02,115.47-265.1"/>
  <path class="cls-1" d="M362.69,813.2c-55.62-47.23-99.24-126.58-113.42-238.62"/>
  <path class="cls-1" d="M550.83,269.58c-18.16-39.73-42.65-75.15-74.68-102.73"/>
  <path class="cls-1" d="M476.15,813.2c68.17-57.89,118.31-164.02,118.31-319.46,0-27.11-1.62-54.9-5.13-82.53"/>
  <circle class="cls-2" cx="582.36" cy="338.34" r="42.97"/>
  <circle class="cls-2" cx="252.15" cy="501.65" r="42.97"/>
  <circle class="cls-2" cx="421.04" cy="668.06" r="32.77"/>
</svg>